<svg id="visual" viewBox="0 0 900 600" width="900" height="600" xmlns="http://www.w3.org/2000/svg" xmlns:xlink="http://www.w3.org/1999/xlink" version="1.1"><path d="M0 27L13.7 36C27.3 45 54.7 63 82 76.2C109.3 89.3 136.7 97.7 163.8 89.3C191 81 218 56 245.2 57.5C272.3 59 299.7 87 327 91.7C354.3 96.3 381.7 77.7 409 72.7C436.3 67.7 463.7 76.3 491 70.2C518.3 64 545.7 43 573 34.2C600.3 25.3 627.7 28.7 654.8 30.5C682 32.3 709 32.7 736.2 47.5C763.3 62.3 790.7 91.7 818 105.7C845.3 119.7 872.7 118.3 886.3 117.7L900 117L900 0L886.3 0C872.7 0 845.3 0 818 0C790.7 0 763.3 0 736.2 0C709 0 682 0 654.8 0C627.7 0 600.3 0 573 0C545.7 0 518.3 0 491 0C463.7 0 436.3 0 409 0C381.7 0 354.3 0 327 0C299.7 0 272.3 0 245.2 0C218 0 191 0 163.8 0C136.7 0 109.3 0 82 0C54.7 0 27.3 0 13.7 0L0 0Z" fill="#0066FF" stroke-linecap="round" stroke-linejoin="miter"></path></svg>